<svg width="27" height="29" viewBox="0 0 27 29" fill="none" xmlns="http://www.w3.org/2000/svg">
<path d="M24.5091 14.4286C24.5091 20.839 19.6414 26.0357 13.6369 26.0357C7.6323 26.0357 2.76465 20.839 2.76465 14.4286C2.76465 8.01814 7.6323 2.82144 13.6369 2.82144C19.6414 2.82144 24.5091 8.01814 24.5091 14.4286Z" fill="#ED4D4D"/>
<path d="M11.3305 12.248L15.9432 17.1725M11.3305 17.1725L15.9432 12.248M24.5091 14.4286C24.5091 20.839 19.6414 26.0357 13.6369 26.0357C7.6323 26.0357 2.76465 20.839 2.76465 14.4286C2.76465 8.01814 7.6323 2.82144 13.6369 2.82144C19.6414 2.82144 24.5091 8.01814 24.5091 14.4286Z" stroke="#F8F9FA" stroke-width="1.5" stroke-linecap="round"/>
</svg>
