<svg version="1.2" xmlns="http://www.w3.org/2000/svg" viewBox="0 0 24 25" width="24" height="25"><style>tspan{white-space:pre}.a{fill:#d9d9d9}.b{fill:#fff}</style><path class="a" d="m12.3 24.5c-6.3 0-11.3-5.4-11.3-12.1 0-6.6 5-12 11.3-12 6.2 0 11.3 5.4 11.3 12 0 6.7-5.1 12.1-11.3 12.1z"/><path fill-rule="evenodd" class="b" d="m11.1 17.6c-0.4 0.1-0.9 0.1-1.3-0.2-0.4-0.2-0.6-0.6-0.8-1.1-0.1-0.4-0.2-1-0.3-1.8 0-0.4-0.1-0.7 0-1 0-0.3 0.2-0.6 0.4-1l2.3-4.3q0.4-0.8 0.8-1.3c0.2-0.3 0.5-0.6 0.9-0.7 0.4-0.1 0.8 0 1.1 0.1q0.6 0.3 1.3 0.7 0.7 0.5 1.2 0.8c0.3 0.3 0.6 0.6 0.7 1 0.1 0.4 0 0.8-0.2 1.2q-0.2 0.5-0.6 1.3l-2.4 4.3c-0.2 0.4-0.3 0.7-0.6 0.9-0.2 0.2-0.5 0.3-0.9 0.5-0.6 0.2-1.1 0.5-1.6 0.6zm1.9-10.1q-0.2 0.3-0.5 0.7l3.4 2.1q0.3-0.4 0.4-0.7c0.1-0.3 0.1-0.4 0.1-0.6 0-0.1-0.1-0.2-0.3-0.4-0.3-0.2-0.6-0.4-1.1-0.7-0.5-0.3-0.9-0.5-1.2-0.7-0.2-0.1-0.3-0.1-0.4-0.1-0.1 0.1-0.2 0.1-0.4 0.4zm-3 5.5c-0.3 0.4-0.3 0.5-0.3 0.6-0.1 0.2-0.1 0.3 0 0.8 0.1 0.7 0.2 1.3 0.3 1.6 0.1 0.4 0.2 0.5 0.3 0.6 0.1 0.1 0.2 0.1 0.6 0 0.3-0.1 0.8-0.3 1.5-0.6 0.4-0.1 0.5-0.2 0.6-0.3 0.1 0 0.1-0.1 0.4-0.6l2.1-3.9-3.4-2.1zm3.8 2.4l0.4 0.3zm-4.2-2.7l0.4 0.3zm0.5 4.2l-0.2 0.5zm-0.9-3.5l-0.5-0.1zm0 0.9l-0.5 0.1zm4.1 1.6l0.4 0.4zm-0.8 0.4l-0.2-0.5zm-0.7-8.1l-0.4-0.2z"/><text style="transform:matrix(1,0,0,1,135,66)" ></text></svg>