<svg version="1.2" xmlns="http://www.w3.org/2000/svg" viewBox="0 0 25 27" width="25" height="27"><style>.a{fill:#5830c4}</style><path class="a" d="m5.5 21q-0.1 0-0.2-0.1-0.1-0.1-0.2-0.2-0.1 0-0.2-0.1-0.1 0-0.2-0.1-0.1 0-0.2 0-0.1-0.1-0.3-0.1-0.1 0-0.2 0-0.1 0-0.2 0h-1.4q-0.1 0-0.2 0-0.1 0-0.3 0-0.1 0-0.2 0.1-0.1 0-0.2 0-0.3 0.1-0.4 0.2-0.2 0.2-0.4 0.3-0.2 0.2-0.3 0.4-0.1 0.2-0.2 0.4-0.1 0.1-0.1 0.2 0 0.2-0.1 0.3 0 0.1 0 0.2 0 0.2 0 0.3v1q0 0.1 0 0.3 0 0.1 0 0.2 0.1 0.1 0.1 0.2 0 0.2 0.1 0.3 0 0.1 0.1 0.2 0 0.1 0.1 0.2 0.1 0.1 0.1 0.2 0.1 0.1 0.2 0.2 0.1 0 0.2 0.1 0.1 0.1 0.2 0.1 0 0.1 0.2 0.2 0.1 0 0.2 0.1 0.1 0 0.2 0 0.1 0.1 0.2 0.1 0.2 0 0.3 0 0.1 0 0.2 0h1.4q0.1 0 0.2 0 0.1 0 0.2 0 0.2 0 0.3-0.1 0.1 0 0.2 0 0.1-0.1 0.2-0.1 0.1-0.1 0.2-0.2 0.1 0 0.2-0.1 0.1-0.1 0.2-0.1 0.1-0.1 0.1-0.2 0.1-0.1 0.2-0.2 0-0.1 0.1-0.2 0-0.1 0.1-0.2 0-0.1 0.1-0.3 0-0.1 0-0.2 0.1-0.1 0.1-0.2 0-0.2 0-0.3v-1q0-0.1 0-0.3 0-0.1-0.1-0.2 0-0.1 0-0.3-0.1-0.1-0.1-0.2 0-0.1-0.1-0.2-0.1-0.1-0.1-0.2-0.1-0.1-0.2-0.2 0-0.1-0.1-0.2z"/><path class="a" d="m6 7.6q0-0.3 0.1-0.6 0.2-0.3 0.4-0.6 0.2-0.2 0.5-0.3 0.4-0.2 0.7-0.2h16.2v-5.9h-16.1q-1.5 0-2.9 0.6-1.5 0.6-2.6 1.7-1.1 1.1-1.6 2.5-0.6 1.4-0.6 3v2.6q0 1.5 0.6 2.9 0.5 1.5 1.6 2.5 1.1 1.1 2.6 1.7 1.4 0.6 2.9 0.6h8.5v-5.9h-8.6q-0.3 0-0.7-0.2-0.3-0.1-0.5-0.3-0.2-0.3-0.4-0.6-0.1-0.3-0.1-0.6z"/></svg>